<?xml version="1.0" encoding="utf-8"?>
<!-- Generator: Adobe Illustrator 17.0.0, SVG Export Plug-In . SVG Version: 6.00 Build 0)  -->
<!DOCTYPE svg PUBLIC "-//W3C//DTD SVG 1.1//EN" "http://www.w3.org/Graphics/SVG/1.1/DTD/svg11.dtd">
<svg version="1.1" id="Layer_1" xmlns="http://www.w3.org/2000/svg" xmlns:xlink="http://www.w3.org/1999/xlink" x="0px" y="0px"
	 width="120px" height="60px" viewBox="0 0 120 60" enable-background="new 0 0 120 60" xml:space="preserve">
<rect fill="#FF5A5F" width="120" height="60"/>
<g>
	<rect x="51.667" y="25.606" fill="#FFFFFF" width="2.922" height="7.722"/>
	<rect x="42.994" y="25.606" fill="#FFFFFF" width="2.922" height="11.595"/>
	<rect x="42.994" y="25.606" fill="#FFFFFF" width="11.595" height="2.922"/>
	<rect x="42.994" y="34.279" fill="#FFFFFF" width="7.734" height="2.922"/>
	<rect x="51.667" y="34.279" fill="#FFFFFF" width="2.922" height="2.922"/>
	<g>
		<rect x="56.428" y="25.606" fill="#FFFFFF" width="2.922" height="11.595"/>
		<rect x="61.33" y="25.606" fill="#FFFFFF" width="2.922" height="11.595"/>
		<rect x="86.637" y="25.606" fill="#FFFFFF" width="6.839" height="2.922"/>
		<rect x="82.776" y="29.467" fill="#FFFFFF" width="2.922" height="7.734"/>
		<rect x="78.204" y="25.606" fill="#FFFFFF" width="2.922" height="11.595"/>
		<rect x="90.553" y="25.606" fill="#FFFFFF" width="2.922" height="11.595"/>
		<rect x="103.819" y="26.502" fill="#FFFFFF" width="2.922" height="10.7"/>
		<rect x="95.146" y="25.606" fill="#FFFFFF" width="11.595" height="2.922"/>
		<rect x="73.392" y="34.279" fill="#FFFFFF" width="7.734" height="2.922"/>
		<rect x="99.007" y="34.279" fill="#FFFFFF" width="7.734" height="2.922"/>
		<rect x="69.531" y="25.606" fill="#FFFFFF" width="11.595" height="2.922"/>
		<rect x="69.531" y="19.997" fill="#FFFFFF" width="2.922" height="13.331"/>
		<rect x="95.146" y="19.997" fill="#FFFFFF" width="2.922" height="13.337"/>
		<rect x="56.428" y="21.336" fill="#FFFFFF" width="2.922" height="2.922"/>
		<rect x="69.531" y="34.279" fill="#FFFFFF" width="2.922" height="2.922"/>
		<rect x="95.146" y="34.279" fill="#FFFFFF" width="2.922" height="2.922"/>
		<rect x="82.776" y="25.606" fill="#FFFFFF" width="2.922" height="2.922"/>
		<rect x="65.478" y="25.606" fill="#FFFFFF" width="2.922" height="2.922"/>
	</g>
	<g>
		
			<rect x="30.526" y="29.729" transform="matrix(0.7071 0.7071 -0.7071 0.7071 35.4425 -11.8185)" fill="#FFFFFF" width="2.922" height="14.29"/>
		
			<rect x="14.555" y="28.462" transform="matrix(0.7071 -0.7071 0.7071 0.7071 -21.0505 21.9875)" fill="#FFFFFF" width="2.922" height="15.885"/>
		
			<rect x="29.421" y="14.157" transform="matrix(0.7071 -0.7071 0.7071 0.7071 -8.5525 29.1264)" fill="#FFFFFF" width="2.922" height="21.461"/>
		
			<rect x="16.2" y="14.149" transform="matrix(-0.7071 -0.7071 0.7071 -0.7071 12.5388 55.0031)" fill="#FFFFFF" width="2.922" height="21.511"/>
		
			<rect x="24.612" y="27.656" transform="matrix(0.7071 -0.7071 0.7071 0.7071 -14.8178 27.7377)" fill="#FFFFFF" width="2.922" height="8.199"/>
		
			<rect x="20.824" y="27.947" transform="matrix(0.7071 0.7071 -0.7071 0.7071 29.0221 -6.4403)" fill="#FFFFFF" width="2.922" height="7.732"/>
		
			<rect x="22.812" y="30.519" transform="matrix(-0.7071 0.7071 -0.7071 -0.7071 67.7411 46.3422)" fill="#FFFFFF" width="2.922" height="13.364"/>
		
			<rect x="22.812" y="30.613" transform="matrix(0.7071 0.7071 -0.7071 0.7071 33.4809 -6.24)" fill="#FFFFFF" width="2.922" height="13.364"/>
	</g>
</g>
</svg>
