<?xml version="1.0" encoding="utf-8"?>
<!-- Generator: Adobe Illustrator 17.0.0, SVG Export Plug-In . SVG Version: 6.00 Build 0)  -->
<!DOCTYPE svg PUBLIC "-//W3C//DTD SVG 1.1//EN" "http://www.w3.org/Graphics/SVG/1.1/DTD/svg11.dtd">
<svg version="1.1" id="Layer_1" xmlns="http://www.w3.org/2000/svg" xmlns:xlink="http://www.w3.org/1999/xlink" x="0px" y="0px"
	 width="60px" height="60px" viewBox="0 0 60 60" enable-background="new 0 0 60 60" xml:space="preserve">
<g>
	
		<rect x="42.07" y="30.149" transform="matrix(0.7071 0.7071 -0.7071 0.7071 43.7523 -18.9629)" fill="#231F20" width="5.392" height="26.366"/>
	
		<rect x="12.601" y="27.811" transform="matrix(0.7071 -0.7071 0.7071 0.7071 -25.5473 23.2547)" fill="#231F20" width="5.392" height="29.309"/>
	
		<rect x="40.032" y="1.417" transform="matrix(0.7071 -0.7071 0.7071 0.7071 -2.4871 36.4269)" fill="#231F20" width="5.392" height="39.598"/>
	
		<rect x="15.636" y="1.403" transform="matrix(-0.7071 -0.7071 0.7071 -0.7071 16.2704 49.2361)" fill="#231F20" width="5.392" height="39.69"/>
	
		<rect x="31.158" y="26.325" transform="matrix(0.7071 -0.7071 0.7071 0.7071 -14.0474 33.8646)" fill="#231F20" width="5.392" height="15.128"/>
	
		<rect x="24.169" y="26.861" transform="matrix(0.7071 0.7071 -0.7071 0.7071 31.9061 -9.0396)" fill="#231F20" width="5.392" height="14.266"/>
	
		<rect x="27.836" y="31.607" transform="matrix(-0.7071 0.7071 -0.7071 -0.7071 83.1886 53.4139)" fill="#231F20" width="5.392" height="24.659"/>
	
		<rect x="27.836" y="31.78" transform="matrix(0.7071 0.7071 -0.7071 0.7071 40.133 -8.6699)" fill="#231F20" width="5.392" height="24.659"/>
</g>
</svg>
