<?xml version="1.0" encoding="utf-8"?>
<!-- Generator: Adobe Illustrator 17.0.0, SVG Export Plug-In . SVG Version: 6.00 Build 0)  -->
<!DOCTYPE svg PUBLIC "-//W3C//DTD SVG 1.1//EN" "http://www.w3.org/Graphics/SVG/1.1/DTD/svg11.dtd">
<svg version="1.1" id="Layer_1" xmlns="http://www.w3.org/2000/svg" xmlns:xlink="http://www.w3.org/1999/xlink" x="0px" y="0px"
	 width="120px" height="60px" viewBox="0 0 120 60" enable-background="new 0 0 120 60" xml:space="preserve">
<g>
	<rect x="52.176" y="24.204" fill="#FF5A5F" width="3.347" height="8.844"/>
	<rect x="42.243" y="24.204" fill="#FF5A5F" width="3.347" height="13.28"/>
	<rect x="42.243" y="24.204" fill="#FF5A5F" width="13.28" height="3.347"/>
	<rect x="42.243" y="34.137" fill="#FF5A5F" width="8.858" height="3.347"/>
	<rect x="52.176" y="34.137" fill="#FF5A5F" width="3.347" height="3.347"/>
	<g>
		<rect x="57.628" y="24.204" fill="#FF5A5F" width="3.347" height="13.28"/>
		<rect x="63.242" y="24.204" fill="#FF5A5F" width="3.347" height="13.28"/>
		<rect x="92.226" y="24.204" fill="#FF5A5F" width="7.832" height="3.347"/>
		<rect x="87.804" y="28.626" fill="#FF5A5F" width="3.347" height="8.858"/>
		<rect x="82.568" y="24.204" fill="#FF5A5F" width="3.347" height="13.28"/>
		<rect x="96.711" y="24.204" fill="#FF5A5F" width="3.347" height="13.28"/>
		<rect x="111.904" y="25.23" fill="#FF5A5F" width="3.347" height="12.254"/>
		<rect x="101.971" y="24.204" fill="#FF5A5F" width="13.28" height="3.347"/>
		<rect x="77.057" y="34.137" fill="#FF5A5F" width="8.858" height="3.347"/>
		<rect x="106.393" y="34.137" fill="#FF5A5F" width="8.858" height="3.347"/>
		<rect x="72.635" y="24.204" fill="#FF5A5F" width="13.28" height="3.347"/>
		<rect x="72.635" y="17.78" fill="#FF5A5F" width="3.347" height="15.268"/>
		<rect x="101.971" y="17.78" fill="#FF5A5F" width="3.347" height="15.275"/>
		<rect x="57.628" y="19.314" fill="#FF5A5F" width="3.347" height="3.347"/>
		<rect x="72.635" y="34.137" fill="#FF5A5F" width="3.347" height="3.347"/>
		<rect x="101.971" y="34.137" fill="#FF5A5F" width="3.347" height="3.347"/>
		<rect x="87.804" y="24.204" fill="#FF5A5F" width="3.347" height="3.347"/>
		<rect x="67.993" y="24.204" fill="#FF5A5F" width="3.347" height="3.347"/>
	</g>
	<g>
		
			<rect x="27.964" y="28.926" transform="matrix(0.7071 0.7071 -0.7071 0.7071 34.9203 -10.0879)" fill="#FF5A5F" width="3.347" height="16.365"/>
		
			<rect x="9.672" y="27.475" transform="matrix(0.7071 -0.7071 0.7071 0.7071 -22.5363 18.7339)" fill="#FF5A5F" width="3.347" height="18.192"/>
		
			<rect x="26.698" y="11.091" transform="matrix(0.7071 -0.7071 0.7071 0.7071 -8.2227 26.91)" fill="#FF5A5F" width="3.347" height="24.579"/>
		
			<rect x="11.556" y="11.083" transform="matrix(-0.7071 -0.7071 0.7071 -0.7071 6.0373 49.3026)" fill="#FF5A5F" width="3.347" height="24.636"/>
		
			<rect x="21.191" y="26.552" transform="matrix(0.7071 -0.7071 0.7071 0.7071 -15.3982 25.3195)" fill="#FF5A5F" width="3.347" height="9.39"/>
		
			<rect x="16.852" y="26.885" transform="matrix(0.7071 0.7071 -0.7071 0.7071 27.5672 -3.9285)" fill="#FF5A5F" width="3.347" height="8.855"/>
		
			<rect x="19.128" y="29.83" transform="matrix(-0.7071 0.7071 -0.7071 -0.7071 62.0157 49.2787)" fill="#FF5A5F" width="3.347" height="15.306"/>
		
			<rect x="19.128" y="29.938" transform="matrix(0.7071 0.7071 -0.7071 0.7071 32.6737 -3.699)" fill="#FF5A5F" width="3.347" height="15.306"/>
	</g>
</g>
</svg>
