<?xml version="1.0" encoding="utf-8"?>
<!-- Generator: Adobe Illustrator 17.0.0, SVG Export Plug-In . SVG Version: 6.00 Build 0)  -->
<!DOCTYPE svg PUBLIC "-//W3C//DTD SVG 1.1//EN" "http://www.w3.org/Graphics/SVG/1.1/DTD/svg11.dtd">
<svg version="1.1" id="Layer_1" xmlns="http://www.w3.org/2000/svg" xmlns:xlink="http://www.w3.org/1999/xlink" x="0px" y="0px"
	 width="60px" height="60px" viewBox="0 0 60 60" enable-background="new 0 0 60 60" xml:space="preserve">
<g>
	
		<rect x="42.07" y="28.149" transform="matrix(0.7071 0.7071 -0.7071 0.7071 42.3381 -19.5486)" fill="#FF5A5F" width="5.392" height="26.366"/>
	
		<rect x="12.601" y="25.811" transform="matrix(0.7071 -0.7071 0.7071 0.7071 -24.1331 22.6689)" fill="#FF5A5F" width="5.392" height="29.309"/>
	
		<rect x="40.032" y="-0.583" transform="matrix(0.7071 -0.7071 0.7071 0.7071 -1.0729 35.8411)" fill="#FF5A5F" width="5.392" height="39.598"/>
	
		<rect x="15.636" y="-0.597" transform="matrix(-0.7071 -0.7071 0.7071 -0.7071 17.6847 45.8219)" fill="#FF5A5F" width="5.392" height="39.69"/>
	
		<rect x="31.158" y="24.325" transform="matrix(0.7071 -0.7071 0.7071 0.7071 -12.6331 33.2788)" fill="#FF5A5F" width="5.392" height="15.128"/>
	
		<rect x="24.169" y="24.861" transform="matrix(0.7071 0.7071 -0.7071 0.7071 30.4918 -9.6254)" fill="#FF5A5F" width="5.392" height="14.266"/>
	
		<rect x="27.836" y="29.607" transform="matrix(-0.7071 0.7071 -0.7071 -0.7071 81.7744 49.9997)" fill="#FF5A5F" width="5.392" height="24.659"/>
	
		<rect x="27.836" y="29.78" transform="matrix(0.7071 0.7071 -0.7071 0.7071 38.7188 -9.2556)" fill="#FF5A5F" width="5.392" height="24.659"/>
</g>
</svg>
